<?xml version="1.0" encoding="utf-8"?>
<!-- Svg Vector Icons : http://www.onlinewebfonts.com/icon -->
<!DOCTYPE svg PUBLIC "-//W3C//DTD SVG 1.1//EN" "http://www.w3.org/Graphics/SVG/1.1/DTD/svg11.dtd">
<svg version="1.1" xmlns="http://www.w3.org/2000/svg" xmlns:xlink="http://www.w3.org/1999/xlink" x="0px" y="0px" viewBox="0 0 1000 1000" enable-background="new 0 0 1000 1000" xml:space="preserve">
<metadata> Svg Vector Icons : http://www.onlinewebfonts.com/icon </metadata>
<g><g fill="#EF4444" transform="translate(0.000000,511.000000) scale(0.100000,-0.100000)"><path d="M4564.4,4999.9C2474.8,4796,759.8,3330.7,243.6,1305.6C133.3,872.7,100,595.9,100,108.9c0-476.6,31.2-736.8,135.3-1163.4c93.7-374.6,189.4-639,362.1-990.7c301.8-611.9,691-1119.7,1192.6-1552.6c722.2-620.2,1581.8-1011.5,2543.3-1157.2c326.8-49.9,1001.1-47.9,1332,0c541.1,81.2,1013.6,228.9,1488.1,462c996.9,491.2,1756.6,1250.8,2247.8,2247.8c233.1,474.5,380.9,947,462,1488.1c47.9,330.9,50,1005.3,0,1332c-83.2,547.4-243.5,1059.4-480.8,1529.7c-730.5,1444.4-2095.8,2428.9-3696.4,2664C5415.6,5008.3,4824.5,5024.9,4564.4,4999.9z M7257.6,1753.1c52-20.8-2.1-64.5-1096.9-874.1C5528,410.7,5003.5,29.8,4995.2,31.9c-8.3,2.1-420.4,303.9-915.8,670.2c-495.3,366.3-1011.5,747.2-1148.9,847.1c-231,170.7-243.5,183.1-197.7,201.9C2803.6,1780.2,7184.7,1780.2,7257.6,1753.1z M3656.9,327.4c607.7-443.3,1130.1-832.5,1161.4-861.6c47.9-43.7,79.1-54.1,168.6-54.1c66.6,0,127,12.5,158.2,35.4c29.1,18.7,586.9,428.7,1238.4,909.5l1186.3,872.1L7576,19.4l4.2-1211.3l-56.2-114.5c-43.7-83.3-85.3-129-160.2-176.9l-102-62.4l-2241.5-6.2l-2241.6-4.2l-112.4,58.3c-81.2,41.6-129,85.3-174.8,160.3l-62.4,99.9L2422.7,0.7l-4.2,1238.4l66.6-52C2522.6,1160,3051.3,772.8,3656.9,327.4z"/></g></g>
</svg>